<svg xmlns="http://www.w3.org/2000/svg" width="512" height="512" viewBox="0 0 512 512" fill="none"><circle cx="256" cy="256" r="256" fill="white"></circle><path d="M127.083 343.285V170.371H152.859L162.525 195.61H163.062C169.148 186.302 176.666 179.321 185.616 174.667C194.566 169.655 205.127 167.149 217.299 167.149C231.977 167.149 243.97 169.834 253.278 175.204C262.586 180.574 269.03 188.629 272.61 199.369H273.147C281.739 186.123 290.51 177.531 299.46 173.593C308.768 169.297 319.866 167.149 332.754 167.149C352.802 167.149 367.838 172.519 377.862 183.259C388.244 193.999 393.435 209.93 393.435 231.052V343.285H358.53V232.126C358.53 219.596 355.666 210.109 349.938 203.665C344.21 197.221 335.618 193.999 324.162 193.999C307.336 193.999 295.343 198.653 288.183 207.961C281.381 217.269 277.98 230.694 277.98 248.236V343.285H243.075V232.126C243.075 219.596 240.211 210.109 234.483 203.665C228.755 197.221 220.163 193.999 208.707 193.999C191.523 193.999 179.53 199.19 172.728 209.572C165.926 219.596 162.525 234.274 162.525 253.606V343.285H127.083ZM256.5 477.535C226.07 477.535 197.43 471.807 170.58 460.351C143.73 448.895 120.102 433.143 99.696 413.095C79.648 392.689 63.896 369.061 52.44 342.211C40.984 315.361 35.256 286.721 35.256 256.291C35.256 225.503 40.984 196.863 52.44 170.371C63.896 143.521 79.648 120.072 99.696 100.024C120.102 79.618 143.73 63.687 170.58 52.231C197.43 40.775 226.07 35.047 256.5 35.047C287.288 35.047 315.928 40.775 342.42 52.231C369.27 63.687 392.719 79.618 412.767 100.024C433.173 120.072 449.104 143.521 460.56 170.371C472.016 196.863 477.744 225.503 477.744 256.291C477.744 286.721 472.016 315.361 460.56 342.211C449.104 369.061 433.173 392.689 412.767 413.095C392.719 433.143 369.27 448.895 342.42 460.351C315.928 471.807 287.288 477.535 256.5 477.535ZM256.5 447.463C282.992 447.463 307.694 442.63 330.606 432.964C353.876 422.94 374.282 409.157 391.824 391.615C409.366 374.073 422.97 353.846 432.636 330.934C442.66 307.664 447.672 282.783 447.672 256.291C447.672 229.799 442.66 205.097 432.636 182.185C422.97 158.915 409.366 138.509 391.824 120.967C374.282 103.425 353.876 89.821 330.606 80.155C307.694 70.131 282.992 65.119 256.5 65.119C230.008 65.119 205.127 70.131 181.857 80.155C158.945 89.821 138.718 103.425 121.176 120.967C103.634 138.509 89.851 158.915 79.827 182.185C70.161 205.097 65.328 229.799 65.328 256.291C65.328 282.783 70.161 307.664 79.827 330.934C89.851 353.846 103.634 374.073 121.176 391.615C138.718 409.157 158.945 422.94 181.857 432.964C205.127 442.63 230.008 447.463 256.5 447.463Z" fill="black"></path></svg>